<svg width="167" height="57" viewBox="0 0 167 57" fill="none" xmlns="http://www.w3.org/2000/svg">
<path fill-rule="evenodd" clip-rule="evenodd" d="M156.699 0H10.1993C1.45545 0 0 3.08487 0 10.4213V46.6441C0 53.975 2.99481 57 10.1893 57H156.7C163.9 57 167 53.9708 167 46.6347V10.4213C167 3.08487 163.899 0 156.699 0Z" fill="black"/>
<path fill-rule="evenodd" clip-rule="evenodd" d="M43.5402 35.4802C42.6991 37.3799 42.2965 38.2278 41.2138 39.9066C39.7024 42.2508 37.573 45.1697 34.9344 45.1942C32.589 45.2163 31.987 43.6391 28.8047 43.6569C25.6225 43.6745 24.9578 45.2219 22.6124 45.2001C19.9735 45.1754 17.9555 42.539 16.4443 40.1957C12.2188 33.6415 11.7773 25.9497 14.3829 21.8608C16.2352 18.9546 19.1561 17.2535 21.9036 17.2535C24.7005 17.2535 26.4589 18.8166 28.7714 18.8166C31.0144 18.8166 32.382 17.251 35.6152 17.251C38.0595 17.251 40.6494 18.6067 42.495 20.9525C36.4489 24.3285 37.4307 33.1278 43.5402 35.4802Z" fill="white"/>
<path fill-rule="evenodd" clip-rule="evenodd" d="M33.1628 14.6335C34.3369 13.0971 35.2298 10.9265 34.906 8.70898C32.9874 8.8436 30.7418 10.0877 29.4308 11.7097C28.2411 13.1825 27.259 15.3664 27.6416 17.4887C29.7365 17.5547 31.9041 16.2798 33.1628 14.6335Z" fill="white"/>
<path fill-rule="evenodd" clip-rule="evenodd" d="M152.088 38.5588H143.592C143.626 39.7323 144.037 40.7614 144.826 41.4365C145.54 42.0434 146.466 42.3201 147.604 42.3201C148.864 42.3201 150.006 42.1027 151.038 41.6869L151.484 43.6865C150.282 44.2253 148.855 44.4826 147.208 44.4826C145.237 44.4826 143.685 43.8923 142.558 42.7086C141.431 41.525 140.863 39.9343 140.863 37.9414C140.863 35.9787 141.39 34.3524 142.436 33.0466C143.543 31.6596 145.028 30.9664 146.895 30.9664C148.736 30.9664 150.124 31.6593 151.064 33.0462C151.813 34.1535 152.192 35.572 152.192 37.193C152.192 37.7055 152.155 38.2235 152.088 38.5588ZM140.016 33.7958C139.852 33.7438 139.415 33.7225 139.103 33.7225C138.107 33.7225 137.329 34.1048 136.786 34.8692C136.313 35.5474 136.067 36.3895 136.067 37.431V44.0912H133.27V35.3423C133.27 33.8551 133.21 32.5235 133.16 31.1823H135.623L135.729 33.8647H135.806C136.102 33.0265 136.572 32.2642 137.222 31.7518C137.851 31.2834 138.558 31.0288 139.292 31.0288C139.551 31.0288 139.852 31.0123 140.016 31.0474V33.7958ZM129.779 42.5636C128.604 43.8781 127.049 44.5363 125.113 44.5363C123.24 44.5363 121.746 43.9044 120.636 42.6397C119.528 41.3788 118.975 39.7786 118.975 37.8577C118.975 35.8474 119.546 34.1978 120.691 32.9175C121.838 31.6301 123.376 30.9978 125.315 30.9978C127.193 30.9978 128.694 31.6232 129.83 32.894C130.911 34.1158 131.453 35.706 131.453 37.645C131.453 39.6453 130.897 41.2774 129.779 42.5636ZM118.133 33.5294H115.172V39.7313C115.172 41.333 115.66 42.127 116.761 42.127C117.268 42.127 117.65 42.0893 117.985 42.0013L118.049 44.1865C117.488 44.4001 116.747 44.5086 115.838 44.5086C114.725 44.5086 113.816 44.1659 113.188 43.4663C112.553 42.7751 112.21 41.607 112.21 39.9685V33.5294H110.4V31.1823H112.21V28.8829L115.172 28.0277V31.1823H118.133V33.5294V33.5294ZM108.181 42.9314C107.025 43.9837 105.422 44.5066 103.366 44.5066C101.461 44.5066 99.9373 44.1309 98.7867 43.3862L99.4445 40.9825C100.684 41.727 102.047 42.1049 103.529 42.1049C104.6 42.1049 105.428 41.8566 106.023 41.3706C106.614 40.8826 106.911 40.2286 106.911 39.3991C106.911 38.6788 106.666 38.0639 106.18 37.5623C105.686 37.0647 104.88 36.605 103.742 36.1737C100.652 35.0017 99.1038 33.2831 99.1038 31.0217C99.1038 29.5441 99.6436 28.3291 100.738 27.3863C101.831 26.4448 103.277 25.9712 105.079 25.9712C106.686 25.9712 108.024 26.2584 109.092 26.8243L108.377 29.1763C107.381 28.6257 106.249 28.3466 104.987 28.3466C103.988 28.3466 103.206 28.6054 102.643 29.0924C102.172 29.5439 101.936 30.0869 101.936 30.7258C101.936 31.4335 102.207 32.0239 102.747 32.4937C103.221 32.9192 104.078 33.3795 105.314 33.8776C106.84 34.496 107.954 35.2308 108.674 36.0704C109.388 36.9068 109.748 37.9469 109.748 39.1915C109.748 40.725 109.222 41.9749 108.181 42.9314ZM91.8218 42.8308C90.7666 43.9658 89.4502 44.5361 87.884 44.5361C86.1979 44.5361 85.0625 43.923 84.2398 42.6893V49.6235H81.4428V35.5251C81.4428 34.1373 81.3906 32.8588 81.3225 31.1823H83.8064L83.9703 33.3617H84.019C84.9693 31.8529 86.3973 31.0207 88.32 31.0207C89.824 31.0207 91.0781 31.6095 92.0825 32.8234C93.0901 34.0315 93.5915 35.6235 93.5915 37.5989C93.5915 39.8131 93.0031 41.5456 91.8218 42.8308ZM77.8232 42.8308C76.7707 43.9658 75.4564 44.5361 73.8945 44.5361C72.2033 44.5361 71.0772 43.923 70.2546 42.6893V49.6235H67.4575V35.5251C67.4575 34.1373 67.3927 32.8588 67.3208 31.1823H69.8115L69.968 33.3617H70.0173C70.9662 31.8529 72.3969 31.0207 74.3223 31.0207C75.8251 31.0207 77.0759 31.6095 78.087 32.8234C79.0885 34.0315 79.5928 35.6235 79.5928 37.5989C79.5928 39.8131 79.0044 41.5456 77.8232 42.8308ZM62.6815 44.0912L61.0316 38.8941H55.2884L53.7132 44.0912H50.7799L56.464 26.1529H59.9809L65.699 44.0912H62.6815ZM146.686 32.9661C145.762 32.9661 145.011 33.4486 144.431 34.2275C143.96 34.8493 143.678 35.5412 143.592 36.547H149.49C149.506 35.5412 149.327 34.8786 148.943 34.252C148.451 33.4536 147.697 32.9661 146.686 32.9661ZM58.145 28.6676H58.0957C57.9176 29.5059 57.6419 30.6216 57.2538 32.1195L55.7855 36.8823H60.5293L59.0412 32.1195C58.8801 31.6365 58.5797 30.3441 58.145 28.6676ZM87.4033 33.2871C86.7017 33.2871 86.075 33.5213 85.5046 33.9928C84.9364 34.4711 84.5536 35.0897 84.3777 35.8558C84.2906 36.2149 84.2398 36.506 84.2398 36.7393V38.8998C84.2398 39.8455 84.5294 40.645 85.0998 41.295C85.6666 41.9389 86.4113 42.266 87.3161 42.266C88.388 42.266 89.2192 41.8501 89.8141 41.011C90.4096 40.1734 90.7095 39.0698 90.7095 37.6948C90.7095 36.4337 90.4283 35.3906 89.8709 34.5737C89.2546 33.7225 88.4327 33.2871 87.4033 33.2871ZM125.212 33.1076C124.079 33.1076 123.213 33.6199 122.622 34.6516C122.109 35.5004 121.859 36.5371 121.859 37.7628C121.859 38.9576 122.109 39.9761 122.622 40.8271C123.227 41.8568 124.085 42.3691 125.191 42.3691C126.267 42.3691 127.119 41.8497 127.727 40.7949C128.255 39.9333 128.518 38.8995 128.518 37.713C128.518 36.5251 128.265 35.5004 127.761 34.6515C127.159 33.6199 126.314 33.1076 125.212 33.1076ZM73.4009 33.2871C72.7031 33.2871 72.0727 33.5213 71.5029 33.9928C70.9334 34.4711 70.5618 35.0897 70.3859 35.8558C70.2998 36.2149 70.2547 36.506 70.2547 36.7393V38.8998C70.2547 39.8455 70.5354 40.645 71.1072 41.295C71.674 41.9389 72.4147 42.266 73.3219 42.266C74.3858 42.266 75.2225 41.8501 75.8156 41.011C76.4097 40.1734 76.7044 39.0698 76.7044 37.6948C76.7044 36.4337 76.4283 35.3906 75.8682 34.5737C75.2534 33.7225 74.4334 33.2871 73.4009 33.2871Z" fill="white"/>
<path d="M54.5103 19.0849L53.7255 21.7185H52.007L54.9299 12.4253H57.0543L60.0179 21.7185H58.2317L57.4062 19.0849H54.5103V19.0849ZM57.1221 17.8027L56.4049 15.5139C56.229 14.9485 56.0801 14.3143 55.9447 13.7765H55.9177C55.7823 14.3143 55.6469 14.9625 55.4847 15.5139L54.781 17.8027H57.1221Z" fill="white"/>
<path d="M61.9123 15.0039L62.9814 18.4095C63.1708 19.0025 63.3061 19.5403 63.4278 20.0917H63.4685C63.5902 19.5403 63.7391 19.0162 63.915 18.4095L64.957 15.0039H66.7162L64.1991 21.7187H62.5619L60.1127 15.0039H61.9123V15.0039Z" fill="white"/>
<path d="M71.3593 21.7185L71.2511 20.974H71.2104C70.8045 21.4979 70.1143 21.8703 69.2619 21.8703C67.9358 21.8703 67.1914 20.8914 67.1914 19.8709C67.1914 18.1752 68.6664 17.3202 71.1022 17.3339V17.2236C71.1022 16.7823 70.9263 16.0516 69.7626 16.0516C69.113 16.0516 68.4364 16.2584 67.9899 16.548L67.6651 15.445C68.1523 15.1416 69.0047 14.8521 70.0467 14.8521C72.1577 14.8521 72.7666 16.217 72.7666 17.6787V20.1054C72.7666 20.712 72.7937 21.305 72.8614 21.7185H71.3593ZM71.1428 18.437C69.9656 18.4094 68.8423 18.6714 68.8423 19.6917C68.8423 20.3536 69.2619 20.6568 69.7895 20.6568C70.4526 20.6568 70.9398 20.2156 71.0887 19.7331C71.1292 19.609 71.1428 19.4711 71.1428 19.3608V18.437V18.437Z" fill="white"/>
<path d="M76.2043 11.9292H74.5264V21.7188H76.2043V11.9292Z" fill="white"/>
<path d="M79.7757 13.129C79.7757 13.6391 79.4105 14.039 78.8285 14.039C78.2737 14.039 77.9084 13.6391 77.9084 13.129C77.9084 12.6051 78.2872 12.2051 78.842 12.2051C79.4105 12.2051 79.7622 12.6051 79.7757 13.129ZM78.0031 15.0041H79.681V21.7189H78.0031V15.0041Z" fill="white"/>
<path d="M81.4128 21.7188C81.4398 21.2638 81.467 20.5193 81.467 19.8299V11.9292H83.1314V15.9278H83.1585C83.5644 15.2798 84.2816 14.8523 85.2695 14.8523C86.8797 14.8523 88.0297 16.2173 88.0162 18.258C88.0162 20.671 86.5141 21.8705 85.0256 21.8705C84.1732 21.8705 83.4154 21.5396 82.9418 20.7122H82.9147L82.8334 21.7188H81.4128V21.7188ZM83.1314 18.9474C83.1314 19.0852 83.1449 19.2232 83.172 19.3472C83.3479 20.0229 83.9297 20.533 84.6469 20.533C85.6889 20.533 86.3249 19.6782 86.3249 18.3269C86.3249 17.1412 85.7701 16.176 84.6604 16.176C83.9838 16.176 83.3749 16.6724 83.1855 17.417C83.1585 17.541 83.1314 17.6927 83.1314 17.8582V18.9474Z" fill="white"/>
<path d="M91.0625 11.9292H89.3846V21.7188H91.0625V11.9292Z" fill="white"/>
<path d="M94.0393 18.8369C94.0799 20.0503 95.0136 20.5742 96.0691 20.5742C96.8404 20.5742 97.3954 20.4639 97.8961 20.2707L98.1396 21.4428C97.5711 21.6773 96.7863 21.8563 95.8393 21.8563C93.7012 21.8563 92.4425 20.519 92.4425 18.4647C92.4425 16.6033 93.5521 14.8521 95.6632 14.8521C97.8013 14.8521 98.5049 16.6445 98.5049 18.1198C98.5049 18.437 98.4779 18.6851 98.4509 18.8369H94.0393V18.8369ZM96.9352 17.6511C96.9486 17.0306 96.6781 16.0103 95.5683 16.0103C94.5398 16.0103 94.1069 16.9617 94.0391 17.6511H96.9352Z" fill="white"/>
<path d="M108.91 18.2992C108.91 20.7673 107.205 21.8703 105.527 21.8703C103.66 21.8703 102.226 20.5604 102.226 18.4095C102.226 16.2033 103.646 14.8521 105.636 14.8521C107.598 14.8521 108.91 16.2586 108.91 18.2992ZM103.944 18.3681C103.944 19.6642 104.567 20.6431 105.582 20.6431C106.529 20.6431 107.192 19.6919 107.192 18.3405C107.192 17.2927 106.732 16.0931 105.595 16.0931C104.418 16.0931 103.944 17.2512 103.944 18.3681Z" fill="white"/>
<path d="M110.279 17.003C110.279 16.2309 110.265 15.5828 110.225 15.0038H111.686L111.767 16.0103H111.808C112.092 15.4863 112.809 14.8521 113.905 14.8521C115.055 14.8521 116.246 15.6103 116.246 17.7337V21.7185H114.582V17.9269C114.582 16.9616 114.23 16.2309 113.324 16.2309C112.661 16.2309 112.201 16.7134 112.025 17.2236C111.971 17.3753 111.957 17.5822 111.957 17.7751V21.7185H110.279V17.003H110.279Z" fill="white"/>
<path d="M122.729 13.0874V15.0039H124.312V16.2725H122.729V19.2369C122.729 20.0505 122.945 20.4778 123.581 20.4778C123.865 20.4778 124.082 20.4364 124.231 20.3951L124.258 21.6912C124.014 21.7876 123.581 21.8567 123.053 21.8567C122.444 21.8567 121.93 21.6498 121.619 21.3051C121.267 20.919 121.105 20.3123 121.105 19.43V16.2725H120.157V15.0039H121.105V13.4872L122.729 13.0874Z" fill="white"/>
<path d="M125.57 11.9292H127.248V15.9277H127.275C127.478 15.6106 127.749 15.3487 128.101 15.1557C128.426 14.9626 128.818 14.8523 129.237 14.8523C130.361 14.8523 131.538 15.6106 131.538 17.7616V21.7188H129.873V17.9546C129.873 16.9757 129.522 16.2449 128.601 16.2449C127.952 16.2449 127.492 16.6862 127.316 17.1962C127.262 17.3341 127.248 17.5135 127.248 17.7065V21.7188H125.57V11.9292H125.57Z" fill="white"/>
<path d="M134.489 18.8369C134.529 20.0503 135.463 20.5742 136.518 20.5742C137.29 20.5742 137.845 20.4639 138.345 20.2707L138.589 21.4428C138.02 21.6773 137.236 21.8563 136.288 21.8563C134.15 21.8563 132.892 20.519 132.892 18.4647C132.892 16.6033 134.001 14.8521 136.112 14.8521C138.251 14.8521 138.954 16.6445 138.954 18.1198C138.954 18.437 138.927 18.6851 138.9 18.8369H134.489V18.8369ZM137.384 17.6511C137.398 17.0306 137.127 16.0103 136.018 16.0103C134.989 16.0103 134.556 16.9617 134.489 17.6511H137.384Z" fill="white"/>
</svg>
