<svg width="260" height="58" viewBox="0 0 260 58" fill="none" xmlns="http://www.w3.org/2000/svg">
<g filter="url(#filter0_d_1_1020)">
<path d="M28.093 53.2189C42.3949 53.2189 53.9827 41.6697 53.9827 27.4196C53.9827 13.1749 42.3949 1.62573 28.093 1.62573C13.7946 1.62573 2.20331 13.1749 2.20331 27.4196C2.20331 41.6697 13.7946 53.2189 28.093 53.2189Z" fill="white"/>
<path d="M24.1136 31.7205H33.6417L36.4251 33.5181H23.6931L17.9791 51.1178C11.6654 48.6803 5.82193 43.0277 3.37205 36.6751C0.758954 30.5204 0.758923 22.7873 3.42878 16.6079C5.93189 10.2518 11.944 4.51435 18.3428 2.15643C23.3774 0.0795471 30.115 -0.13963 35.4547 1.49359C41.5821 3.24171 47.3671 7.61813 50.7323 13.3309C54.4932 19.5951 55.5487 27.5544 53.2638 34.706C51.8198 39.4501 48.8413 43.9928 44.7469 47.2433L37.713 35.5668L47.5036 41.0056C47.5586 41.0056 47.5871 40.9454 47.5586 40.8889L34.7344 29.8575L51.3195 32.3798C51.3762 32.3798 51.3992 32.3534 51.3992 32.3251L51.2928 32.242L35.6532 26.7785L51.9048 22.8669C51.9599 22.8669 51.9599 22.8157 51.9315 22.7874L35.2613 23.8692L48.3143 14.0221C48.3427 13.9691 48.2292 13.9426 48.2008 13.9973L33.5387 21.4052L41.6334 7.17636C41.6334 7.15345 41.6334 7.0933 41.5821 7.12328L31.0055 19.4891L33.035 3.24173C33.035 3.21161 32.9782 3.18517 32.9232 3.21161L28.0588 18.9889L23.7995 2.73969C23.7711 2.7131 23.7126 2.68312 23.686 2.73969L24.8585 19.5951L14.8142 6.56997C14.7804 6.53985 14.7558 6.57002 14.7274 6.59646L22.3254 21.0109L7.96312 13.1912C7.93644 13.1912 7.88152 13.2213 7.88152 13.2459L20.6525 23.6975L4.34952 21.9829C4.29105 22.013 4.29105 22.0624 4.34952 22.089L20.1558 26.697L4.43289 31.2997C4.40266 31.3228 4.40266 31.381 4.43289 31.4058L20.6525 29.5234L7.90812 40.309C7.88144 40.309 7.85319 40.3637 7.90812 40.3956L8.07841 40.3389L18.286 35.0133L20.6826 31.2166H23.4057L21.5164 29.8857L27.8319 19.7911L24.1065 31.715L24.1136 31.7207" fill="#231F20"/>
<path d="M71.1404 45.0099H58.4172L68.6053 8.77319H94.6866L92.2012 17.3723H78.8909L77.1843 23.5411H90.4946L88.2505 31.4562H74.942L71.1404 45.0099Z" fill="#231F20"/>
<path d="M100.583 45.0099H88.0076L95.4655 18.5371H108.041L100.583 45.0099ZM108.724 16.0113H96.1485L98.1957 8.77319H110.772L108.724 16.0113Z" fill="#231F20"/>
<path d="M133.212 45.0098H120.879L121.755 42.0474C119.268 44.1349 116.735 45.6408 112.688 45.6408C108.592 45.6408 106.011 43.6965 106.011 39.5675C106.011 35.0037 107.815 28.2021 110.496 23.4421C112.445 19.8964 115.954 18.0511 120.098 18.0511C123.655 18.0511 126.288 19.6066 127.313 21.5473L130.824 8.77319H143.4L133.212 45.0098ZM123.754 26.4046C122.632 26.4046 121.512 26.7474 120.879 28.2993C119.951 30.5335 119.123 32.72 119.123 34.9047C119.123 35.9264 119.855 36.7995 121.072 36.7995C122.048 36.7995 122.681 36.5079 123.217 36.1703L125.754 27.4739C125.314 26.8411 124.533 26.4046 123.754 26.4046Z" fill="#231F20"/>
<path d="M168.724 33.4484H151.371C151.027 34.8554 150.688 35.8293 150.688 36.9446C150.688 37.4802 150.786 38.8394 152.54 38.8394C154.295 38.8394 155.075 38.1589 155.806 35.5853H168.139C166.579 43.1151 157.61 45.6869 152.102 45.6869C144.642 45.6869 138.841 44.6193 138.841 37.4801C138.841 33.5455 140.839 27.0356 143.473 23.5889C146.642 19.4599 152.15 17.908 157.222 17.908C165.02 17.908 170.088 19.5094 170.088 26.113C170.088 27.718 169.407 31.2619 168.724 33.4484ZM156.147 24.5611C154.587 24.5611 153.516 25.6287 152.833 28.2994H157.999C158.146 27.7656 158.341 26.9402 158.341 26.4541C158.341 24.9976 157.463 24.5611 156.147 24.5611Z" fill="#231F20"/>
<path d="M181.364 45.0099H168.787L178.975 8.77319H191.552L181.364 45.0099Z" fill="#231F20"/>
<path d="M197.981 45.0099H185.402L192.862 18.5371H205.439L197.981 45.0099ZM206.12 16.0113H193.545L195.592 8.77319H208.169L206.12 16.0113Z" fill="#231F20"/>
<path d="M228.732 18.5368L229.827 24.5111H220.201L217.373 34.5668C217.13 35.3427 216.933 36.3131 216.933 36.9459C216.933 38.1107 217.423 38.5014 219.128 38.5014H221.81L219.956 45.0095H208.745C205.039 45.0095 203.625 43.2119 203.625 40.4899C203.625 39.3763 203.772 38.1584 204.163 36.7992L210.987 12.6597H223.565L221.906 18.5368H228.732Z" fill="#231F20"/>
<path d="M58.16 49.0797L61.2947 49.0754L59.2972 55.5924L56.1714 55.5938L58.16 49.0786V49.0797Z" fill="#231F20"/>
<path d="M69.1018 49.0855L73.6876 49.0827L74.8638 53.4292H74.8957L76.2227 49.081L78.9439 49.0781L76.9323 55.581L72.5452 55.5969L71.2732 50.9536H71.2519L69.8611 55.5881L67.1381 55.5895L69.1018 49.0867V49.0855Z" fill="#231F20"/>
<path d="M84.8879 49.0883L88.3401 49.0869L88.9432 53.1824L92.1009 49.0833L95.2959 49.0791L90.0289 55.5838L86.1971 55.5865L84.8879 49.0872V49.0883Z" fill="#231F20"/>
<path d="M101.306 49.0903L108.438 49.0847L108.035 50.4015L103.935 50.4057L103.538 51.742L107.382 51.7406L106.997 52.9956L103.155 52.997L102.758 54.2873L106.9 54.2831L106.483 55.6017L99.3124 55.6073L101.306 49.0903Z" fill="#231F20"/>
<path d="M131.936 50.6767L129.493 50.6781L129.977 49.0979L137.992 49.0908L137.509 50.6711L135.068 50.6738L133.571 55.5771L130.44 55.5813L131.936 50.6764V50.6767Z" fill="#231F20"/>
<path d="M144.478 49.0818L149.227 49.079L149.458 53.4272H149.477L152.309 49.0772L157.081 49.0715L155.099 55.5885L152.193 55.5914L153.683 50.6829H153.66L150.132 55.5931L147.104 55.5973L146.676 50.6888H146.644L145.156 55.5832L142.497 55.5847L144.478 49.0818Z" fill="#231F20"/>
<path d="M177.037 49.0856L181.619 49.0828L182.799 53.4293H182.829L184.156 49.0793L186.876 49.0779L184.885 55.5966L180.442 55.5839L179.207 50.9529H179.187L177.763 55.5856L175.041 55.5885L177.037 49.0856Z" fill="#231F20"/>
<path d="M194.393 50.6672L191.948 50.6687L192.432 49.0867L200.449 49.0811L199.967 50.6612L197.524 50.664L196.028 55.5831L192.894 55.5874L194.393 50.6665V50.6672Z" fill="#231F20"/>
<path d="M118.047 51.0593C117.977 50.9869 117.974 50.8631 118.002 50.7623C118.105 50.4318 118.52 50.2144 119.182 50.2144C119.572 50.213 120.172 50.2568 120.344 50.3929C120.527 50.5254 120.585 50.7252 120.521 50.9214H123.298C123.624 49.7583 122.89 49.009 119.755 49.0107C116.776 49.015 115.088 49.6506 114.653 51.0699C114.541 51.4411 114.527 51.8971 114.834 52.2047C115.602 52.9647 119.065 53.267 119.358 53.6771C119.416 53.7602 119.439 53.8591 119.404 53.9758C119.244 54.499 118.501 54.6333 117.851 54.6333C117.438 54.6333 116.902 54.5449 116.748 54.3752C116.603 54.2038 116.603 53.9422 116.686 53.7743L113.78 53.78C113.487 54.7892 113.363 55.8391 117.404 55.8373C120.793 55.8331 122.345 55.0066 122.735 53.7216C122.929 53.0924 122.737 52.7442 122.517 52.5197C121.765 51.7473 118.41 51.4627 118.047 51.0597" fill="#231F20"/>
<path d="M163.461 49.0921L170.593 49.0864L170.192 50.4033L166.09 50.406L165.693 51.7423L169.537 51.7409L169.152 52.9959L165.31 52.9973L164.912 54.2894L169.055 54.2865L168.638 55.6034L161.467 55.6105L163.461 49.0918V49.0921Z" fill="#231F20"/>
<path d="M245.711 18.5368L238.886 33.2058L239.081 18.5368H226.358L228.795 45.0095C228.483 46.5597 227.969 47.4328 226.993 47.8641C225.925 48.3378 223.511 48.2547 222.661 48.207L222.507 48.2156L220.502 55.4077L229.086 55.4162C234.156 55.4162 236.644 52.8762 240.25 47.243L258.581 18.5361H245.711" fill="#231F20"/>
<path d="M208.581 51.044C208.512 50.9698 208.51 50.846 208.537 50.7471C208.642 50.4148 209.055 50.1974 209.717 50.1974C210.107 50.1974 210.707 50.2415 210.879 50.3777C211.063 50.5085 211.122 50.7099 211.056 50.9061H213.832C214.161 49.7431 213.424 48.9918 210.29 48.9954C207.311 48.9982 205.622 49.6353 205.189 51.0547C205.076 51.4241 205.062 51.8818 205.369 52.1876C206.137 52.9494 209.6 53.2517 209.892 53.6618C209.953 53.7431 209.974 53.8439 209.939 53.9605C209.781 54.4837 209.035 54.6162 208.388 54.618C207.973 54.618 207.437 54.5297 207.283 54.3582C207.139 54.1868 207.139 53.9269 207.221 53.759L204.315 53.7618C204.022 54.7729 203.898 55.8228 207.939 55.821C211.328 55.8154 212.88 54.9903 213.272 53.7035C213.464 53.0742 213.273 52.726 213.052 52.5033C212.3 51.7309 208.945 51.4463 208.581 51.0433" fill="#231F20"/>
<path d="M247.693 44.5229C246.434 44.5229 245.415 43.5066 245.415 42.2534C245.415 41.0002 246.434 39.9838 247.693 39.9838C248.951 39.9838 249.971 41.0002 249.971 42.2534C249.971 43.5066 248.951 44.5229 247.693 44.5229ZM247.693 39.4941C246.166 39.4941 244.924 40.7333 244.924 42.2534C244.924 43.7735 246.166 45.0125 247.693 45.0125C249.217 45.0125 250.461 43.7735 250.461 42.2534C250.461 40.7333 249.217 39.4941 247.693 39.4941Z" fill="#231F20"/>
<path d="M247.218 42.0631V41.2659H247.597C247.922 41.2588 248.277 41.28 248.277 41.6618C248.277 42.0436 247.922 42.0631 247.597 42.0631H247.218ZM248.802 41.6831C248.802 41.1334 248.481 40.824 247.793 40.824H246.718V43.6698H247.218V42.505H247.597L248.312 43.6698H248.862L248.115 42.4643C248.508 42.4167 248.802 42.1762 248.802 41.6831Z" fill="#231F20"/>
<path d="M245.691 18.6012L238.888 33.2206L239.083 18.6012H226.404L228.833 44.982C228.522 46.5268 228.01 47.3964 227.037 47.8277C225.973 48.2978 223.567 48.2148 222.719 48.1671L222.567 48.1756L220.568 55.3448L229.122 55.3519C234.176 55.3519 236.654 52.8225 240.248 47.2087L258.515 18.6008H245.691V18.6012Z" fill="#231F20"/>
</g>
<defs>
<filter id="filter0_d_1_1020" x="-2.58075" y="0.414062" width="265.162" height="63.4233" filterUnits="userSpaceOnUse" color-interpolation-filters="sRGB">
<feFlood flood-opacity="0" result="BackgroundImageFix"/>
<feColorMatrix in="SourceAlpha" type="matrix" values="0 0 0 0 0 0 0 0 0 0 0 0 0 0 0 0 0 0 127 0" result="hardAlpha"/>
<feOffset dy="4"/>
<feGaussianBlur stdDeviation="2"/>
<feComposite in2="hardAlpha" operator="out"/>
<feColorMatrix type="matrix" values="0 0 0 0 0 0 0 0 0 0 0 0 0 0 0 0 0 0 0.25 0"/>
<feBlend mode="normal" in2="BackgroundImageFix" result="effect1_dropShadow_1_1020"/>
<feBlend mode="normal" in="SourceGraphic" in2="effect1_dropShadow_1_1020" result="shape"/>
</filter>
</defs>
</svg>
