<svg width="167" height="57" viewBox="0 0 167 57" fill="none" xmlns="http://www.w3.org/2000/svg">
<path fill-rule="evenodd" clip-rule="evenodd" d="M155.285 1.73682H11.6157C3.04073 1.73682 1.6134 4.64224 1.6134 11.5519V45.6676C1.6134 52.572 4.55034 55.421 11.6058 55.421H155.285C162.346 55.421 165.386 52.568 165.386 45.6587V11.5519C165.386 4.64224 162.346 1.73682 155.285 1.73682Z" fill="black"/>
<path d="M82.0765 32.5279C79.0518 32.5279 76.6573 34.7479 76.6573 37.831C76.6573 40.7909 79.0518 43.1342 82.0765 43.1342C85.1012 43.1342 87.4959 40.9142 87.4959 37.831C87.4959 34.6244 85.1012 32.5279 82.0765 32.5279ZM82.0765 40.9142C80.4381 40.9142 79.0518 39.5576 79.0518 37.7077C79.0518 35.8576 80.4381 34.501 82.0765 34.501C83.7149 34.501 85.1012 35.7344 85.1012 37.7077C85.1012 39.5576 83.7149 40.9142 82.0765 40.9142ZM70.3559 32.5279C67.3311 32.5279 64.9365 34.7479 64.9365 37.831C64.9365 40.7909 67.3311 43.1342 70.3559 43.1342C73.3806 43.1342 75.775 40.9142 75.775 37.831C75.775 34.6244 73.3806 32.5279 70.3559 32.5279ZM70.3559 40.9142C68.7173 40.9142 67.3311 39.5576 67.3311 37.7077C67.3311 35.8576 68.7173 34.501 70.3559 34.501C71.9942 34.501 73.3806 35.7344 73.3806 37.7077C73.3806 39.5576 71.9942 40.9142 70.3559 40.9142ZM56.3664 34.1312V36.351H61.7858C61.6597 37.5845 61.1557 38.5712 60.5254 39.1878C59.7693 39.9278 58.509 40.7909 56.3664 40.7909C52.9637 40.7909 50.4432 38.2011 50.4432 34.8711C50.4432 31.5412 53.0897 28.9514 56.3664 28.9514C58.131 28.9514 59.5171 29.6915 60.5254 30.5546L62.1638 28.9514C60.7775 27.718 59.0131 26.7314 56.4924 26.7314C51.9555 26.7314 48.0485 30.4314 48.0485 34.8711C48.0485 39.3109 51.9554 43.011 56.4924 43.011C59.0131 43.011 60.7775 42.2708 62.2898 40.6676C63.8022 39.1878 64.3064 37.0912 64.3064 35.4878C64.3064 34.9944 64.3064 34.5011 64.1804 34.1312H56.3664V34.1312ZM113.584 35.8578C113.08 34.6244 111.819 32.5279 109.047 32.5279C106.274 32.5279 104.006 34.6244 104.006 37.831C104.006 40.7909 106.274 43.1342 109.299 43.1342C111.694 43.1342 113.206 41.6542 113.71 40.7909L111.946 39.5576C111.315 40.4209 110.559 41.0375 109.299 41.0375C108.039 41.0375 107.283 40.5442 106.652 39.4342L113.836 36.4743L113.584 35.8578ZM106.274 37.5843C106.274 35.6111 107.913 34.5011 109.047 34.5011C109.929 34.5011 110.811 34.9944 111.064 35.6111L106.274 37.5843ZM100.351 42.6408H102.746V27.2247H100.351V42.6408ZM96.57 33.6378C95.9398 33.0212 94.9316 32.4044 93.6713 32.4044C91.0246 32.4044 88.504 34.7478 88.504 37.7077C88.504 40.6674 90.8986 42.8876 93.6713 42.8876C94.9316 42.8876 95.9398 42.2708 96.444 41.6541H96.57V42.3941C96.57 44.3675 95.4357 45.4773 93.6713 45.4773C92.285 45.4773 91.2767 44.4908 91.0246 43.6273L89.0082 44.4908C89.6383 45.8474 91.1507 47.5739 93.7975 47.5739C96.5702 47.5739 98.8385 45.9708 98.8385 42.1473V32.7746H96.57V33.6378ZM93.7973 40.9142C92.159 40.9142 90.7726 39.5576 90.7726 37.7077C90.7726 35.8576 92.159 34.501 93.7973 34.501C95.4355 34.501 96.696 35.8576 96.696 37.7077C96.696 39.5576 95.4357 40.9142 93.7973 40.9142ZM124.549 27.2247H118.877V42.6408H121.272V36.8444H124.549C127.195 36.8444 129.716 34.9944 129.716 32.0345C129.716 29.0746 127.195 27.2247 124.549 27.2247ZM124.675 34.6244H121.272V29.3214H124.675C126.439 29.3214 127.447 30.8013 127.447 31.911C127.321 33.2678 126.313 34.6244 124.675 34.6244ZM139.168 32.4046C137.404 32.4046 135.639 33.1447 135.009 34.7479L137.151 35.6113C137.656 34.7479 138.412 34.5013 139.294 34.5013C140.554 34.5013 141.689 35.2415 141.815 36.4745V36.5978C141.437 36.351 140.428 35.9812 139.42 35.9812C137.151 35.9812 134.883 37.2147 134.883 39.4344C134.883 41.5311 136.773 42.8877 138.79 42.8877C140.428 42.8877 141.185 42.1475 141.815 41.4078H141.941V42.6409H144.209V36.7213C143.957 34.0079 141.815 32.4046 139.168 32.4046ZM138.916 40.9142C138.16 40.9142 137.025 40.5442 137.025 39.5576C137.025 38.3242 138.412 37.9543 139.546 37.9543C140.554 37.9543 141.058 38.2011 141.688 38.4477C141.437 39.9277 140.176 40.9142 138.916 40.9142ZM152.149 32.7746L149.502 39.4342H149.377L146.604 32.7746H144.083L148.242 42.1473L145.848 47.3274H148.242L154.67 32.7746H152.149ZM130.976 42.6408H133.371V27.2247H130.976V42.6408Z" fill="white"/>
<path d="M52.443 18.0676H56.3697C56.3921 18.1552 56.4105 18.261 56.4256 18.3851C56.4403 18.5092 56.4479 18.6333 56.4479 18.7573C56.4479 19.261 56.3697 19.7354 56.213 20.1804C56.0565 20.6257 55.8102 21.0234 55.4746 21.3736C55.1168 21.7459 54.6877 22.0344 54.1882 22.2386C53.6885 22.4427 53.1179 22.545 52.4765 22.545C51.8949 22.545 51.3466 22.4427 50.832 22.2386C50.3175 22.0344 49.8699 21.7497 49.4896 21.3847C49.1091 21.0198 48.8072 20.5873 48.5834 20.0874C48.3596 19.5875 48.2478 19.042 48.2478 18.4508C48.2478 17.8597 48.3596 17.3141 48.5834 16.8142C48.8072 16.3143 49.1091 15.8819 49.4896 15.5168C49.8699 15.1521 50.3175 14.8674 50.832 14.6631C51.3466 14.4588 51.8949 14.3564 52.4765 14.3564C53.1253 14.3564 53.7052 14.4659 54.2161 14.6849C54.7269 14.9039 55.1652 15.2067 55.5306 15.5936L54.4902 16.5897C54.229 16.3199 53.9382 16.1135 53.6176 15.9712C53.2969 15.8288 52.9128 15.7578 52.4654 15.7578C52.0999 15.7578 51.753 15.8217 51.4248 15.9493C51.0966 16.077 50.8096 16.2577 50.5635 16.4912C50.3175 16.7249 50.1216 17.0077 49.9762 17.3396C49.8308 17.6718 49.7581 18.0422 49.7581 18.4508C49.7581 18.8596 49.8308 19.2299 49.9762 19.5619C50.1216 19.8941 50.3191 20.1768 50.5692 20.4103C50.819 20.644 51.1079 20.8246 51.4361 20.9523C51.7642 21.0801 52.1146 21.1439 52.4877 21.1439C52.9128 21.1439 53.2727 21.0837 53.5673 20.9632C53.8618 20.8428 54.1136 20.6879 54.3224 20.4979C54.4715 20.3666 54.6001 20.2006 54.7084 19.9998C54.8163 19.7992 54.9002 19.5747 54.9601 19.3265H52.443V18.0676V18.0676Z" fill="white"/>
<path d="M59.211 15.9331V17.7503H62.4216V19.1516H59.211V20.9689H62.7796V22.3701H57.7007V14.5317H62.7796V15.9331H59.211Z" fill="white"/>
<path d="M65.8681 22.3701V15.9331H63.6306V14.5317H69.6158V15.9331H67.3784V22.3701H65.8681Z" fill="white"/>
<path d="M74.6602 14.5317H73.15V22.3701H74.6602V14.5317Z" fill="white"/>
<path d="M77.9728 22.3701V15.9331H75.7353V14.5317H81.7205V15.9331H79.483V22.3701H77.9728Z" fill="white"/>
<path d="M88.8237 22.5452C88.227 22.5452 87.6732 22.4392 87.1624 22.2277C86.6514 22.0161 86.2098 21.726 85.8367 21.3573C85.4637 20.9888 85.1712 20.5546 84.9587 20.0546C84.7461 19.5548 84.6396 19.02 84.6396 18.4508C84.6396 17.8814 84.746 17.347 84.9587 16.8471C85.1713 16.3472 85.4638 15.913 85.8367 15.5443C86.2098 15.1758 86.6514 14.8857 87.1624 14.674C87.6732 14.4624 88.227 14.3564 88.8237 14.3564C89.4202 14.3564 89.9741 14.4624 90.4851 14.674C90.9958 14.8857 91.4376 15.1758 91.8108 15.5443C92.1837 15.913 92.4764 16.3472 92.6889 16.8471C92.9014 17.347 93.0079 17.8814 93.0079 18.4508C93.0079 19.02 92.9016 19.5548 92.6889 20.0546C92.4764 20.5546 92.1835 20.9888 91.8108 21.3573C91.4376 21.726 90.9958 22.0161 90.4851 22.2277C89.9741 22.4392 89.4202 22.5452 88.8237 22.5452ZM88.8237 21.1439C89.1967 21.1439 89.5454 21.0782 89.8696 20.9468C90.1941 20.8154 90.4776 20.6331 90.7199 20.3994C90.9623 20.1659 91.1525 19.8832 91.2905 19.551C91.4284 19.219 91.4975 18.8522 91.4975 18.4508C91.4975 18.0494 91.4284 17.6828 91.2905 17.3506C91.1525 17.0186 90.9623 16.7359 90.7199 16.5022C90.4776 16.2687 90.1941 16.0862 89.8696 15.9548C89.5453 15.8234 89.1966 15.7578 88.8237 15.7578C88.4508 15.7578 88.1021 15.8234 87.7778 15.9548C87.4533 16.0862 87.1698 16.2687 86.9275 16.5022C86.685 16.7359 86.4949 17.0186 86.3571 17.3506C86.219 17.6828 86.1501 18.0494 86.1501 18.4508C86.1501 18.8522 86.219 19.219 86.3571 19.551C86.4949 19.8832 86.685 20.1659 86.9275 20.3994C87.1698 20.6331 87.4533 20.8154 87.7778 20.9468C88.1023 21.0782 88.4508 21.1439 88.8237 21.1439Z" fill="white"/>
<path d="M94.2274 14.5317H95.9837L99.2056 19.7865H99.2951L99.2056 18.2757V14.5317H100.705V22.3701H99.116L95.7152 16.8198H95.6256L95.7152 18.3305V22.3701H94.2274V14.5317Z" fill="white"/>
<path fill-rule="evenodd" clip-rule="evenodd" d="M36.5848 23.8521L16.9811 12.8149L32.4661 27.8898L36.5848 23.8521Z" fill="white"/>
<path fill-rule="evenodd" clip-rule="evenodd" d="M15.1612 12.9272C15.0865 13.0602 15.005 13.2138 15.005 13.3831V44.6156C15.005 44.7135 15.0571 44.8059 15.0839 44.8927L31.4828 28.8167L15.1612 12.9272Z" fill="white"/>
<path fill-rule="evenodd" clip-rule="evenodd" d="M32.4682 29.74L16.3907 45.501C16.4377 45.4834 16.4843 45.4627 16.53 45.4371L36.8441 33.9997L32.4682 29.74Z" fill="white"/>
<path fill-rule="evenodd" clip-rule="evenodd" d="M44.2685 28.1775L37.7867 24.5281L33.4155 28.8132L38.0482 33.3231L44.2685 29.821C44.9162 29.4566 44.9162 28.5421 44.2685 28.1775Z" fill="white"/>
</svg>
